<?xml version="1.0" encoding="UTF-8" standalone="no"?>
<!-- Created with Inkscape (http://www.inkscape.org/) -->

<svg
   version="1.1"
   id="svg1"
   width="1365.3333"
   height="1365.3333"
   viewBox="0 0 1365.3333 1365.3333"
   sodipodi:docname="unicornstar.png"
   inkscape:version="1.4.2 (f4327f4, 2025-05-13)"
   xmlns:inkscape="http://www.inkscape.org/namespaces/inkscape"
   xmlns:sodipodi="http://sodipodi.sourceforge.net/DTD/sodipodi-0.dtd"
   xmlns="http://www.w3.org/2000/svg"
   xmlns:svg="http://www.w3.org/2000/svg">
  <defs
     id="defs1" />
  <sodipodi:namedview
     id="namedview1"
     pagecolor="#ffffff"
     bordercolor="#000000"
     borderopacity="0.25"
     inkscape:showpageshadow="2"
     inkscape:pageopacity="0.0"
     inkscape:pagecheckerboard="0"
     inkscape:deskcolor="#d1d1d1"
     inkscape:zoom="0.56616214"
     inkscape:cx="681.78349"
     inkscape:cy="682.66663"
     inkscape:window-width="1920"
     inkscape:window-height="991"
     inkscape:window-x="-9"
     inkscape:window-y="-9"
     inkscape:window-maximized="1"
     inkscape:current-layer="g1" />
  <g
     inkscape:groupmode="layer"
     inkscape:label="Image"
     id="g1">
    <path
       style="fill:#000000"
       d="m 572.10348,1060.8197 c 0,-5.1847 6.4481,-21.2981 12.4267,-31.0536 7.851,-12.8106 23.233,-28.5272 36.4978,-37.29208 29.0692,-19.20766 56.8173,-27.77524 119.0755,-36.76606 17.9666,-2.5946 39.4965,-6.24094 47.8442,-8.10298 52.4534,-11.70033 87.4205,-34.32492 102.7864,-66.50541 12.078,-25.29458 11.495,-57.97099 -1.4937,-83.73224 -6.6467,-13.18275 -25.6541,-39.52834 -27.3179,-37.86452 -0.2576,0.25751 0.8472,6.12214 2.455,13.03249 3.8472,16.5358 4.2057,49.44618 0.6763,62.09756 -6.2964,22.56997 -17.2094,40.92112 -33.1674,55.77366 -27.8219,25.89455 -78.5813,47.60504 -127.7829,54.65449 l -6,0.85967 4.6666,-2.95371 c 26.211,-16.58989 36.538,-24.2091 46.6667,-34.43041 26.9176,-27.16378 33.4436,-54.80835 19.7809,-83.79303 -6.2699,-13.3014 -18.5497,-28.40908 -45.9605,-56.54493 -14.0571,-14.42887 -28.722,-30.02887 -32.5887,-34.66666 -11.2763,-13.52516 -29.2317,-41.91542 -29.2317,-46.2198 0,-0.66519 6.59,-3.35157 14.6444,-5.96974 38.996,-12.67607 71.1889,-35.37065 82.316,-58.02907 3.1901,-6.49608 3.7063,-9.16188 3.7063,-19.14274 v -11.59566 l -13,-25.43486 c -8.6265,-16.87784 -12.9902,-26.88245 -12.9707,-29.73767 0.089,-13.06981 19.6476,-38.35433 40.6373,-52.53399 27.3984,-18.50903 60.8332,-30.15314 100.6317,-35.04635 16.2431,-1.99709 51.1321,-1.68774 71.9512,0.63795 27.6883,3.09306 72.08382,12.68063 72.08382,15.56709 0,0.71612 -3.8448,17.00039 -8.5439,36.18727 -4.6992,19.18687 -11.6817,48.08522 -15.51692,64.21855 -3.8351,16.13334 -7.1314,29.52438 -7.3251,29.75787 -0.1936,0.2335 -3.1591,-1.7181 -6.5899,-4.33688 -25.5456,-19.49945 -57.8823,-30.14463 -91.3225,-30.06323 -25.4439,0.0619 -57.1853,8.03182 -69.8311,17.53373 -16.7804,12.60849 -17.3237,27.40838 -1.5847,43.16231 9.2797,9.28848 20.808,15.946 67.57,39.02105 41.4099,20.43402 61.8904,32.65257 79.8956,47.66534 33.98522,28.33685 52.31002,59.97958 58.11872,100.35775 2.8081,19.51974 1.1812,43.55043 -4.2132,62.23538 -19.9212,69.00239 -87.20922,117.17403 -190.65702,136.49176 -26.829,5.01 -44.8223,7.0509 -107.3333,12.1742 -71.8282,5.887 -112.3343,16.984 -148.5057,40.6844 -3.3562,2.199 -3.4943,2.1873 -3.4943,-0.2969 z m 396.7805,-136.11037 c 8.1545,-12.0617 17.4605,-33.43491 21.276,-48.86457 3.2781,-13.25671 3.5432,-16.17729 2.9041,-32 -0.4845,-11.99406 -1.5827,-20.44914 -3.5295,-27.17318 -12.9551,-44.74422 -52.8629,-79.4669 -106.0978,-92.31273 -15.2849,-3.68833 -16.0658,-3.18671 -4,2.56962 49.8922,23.8025 81.7262,59.13003 93.6224,103.89669 2.9302,11.02637 3.4336,15.70292 3.4029,31.60775 -0.05,26.03511 -3.8093,42.75803 -15.1352,67.33332 -5.2218,11.33046 -5.2221,11.33215 -1.2185,6.66667 2.2026,-2.56667 6.1516,-7.84227 8.7756,-11.72357 z m -482.1138,48.99752 c -30.932,-3.82311 -58.4929,-11.81174 -84.73539,-24.56085 -56.63216,-27.51296 -92.84975,-74.20474 -102.42496,-132.04643 -5.97958,-36.12132 -3.2093,-68.74263 12.60527,-148.43255 6.63446,-33.4312 10.53179,-51.3465 31.23196,-143.56743 5.5966,-24.93333 12.22828,-54.63333 14.73707,-65.99999 2.50878,-11.36667 5.13582,-21.97655 5.83785,-23.57752 2.45262,-5.59315 38.05545,-15.1762 73.9616,-19.90788 17.4573,-2.30052 64.857,-2.1393 68.9504,0.23452 1.9224,1.11479 0.8888,6.47295 -9.5003,49.25088 -31.647,130.30898 -38.142,157.50439 -46.0141,192.66665 -14.128,63.10607 -17.8375,91.92862 -15.4024,119.67724 2.3101,26.32484 7.9363,43.88217 21.2695,66.37415 11.826,19.94934 27.9057,36.88781 47.9201,50.4791 25.6535,17.42073 55.8497,28.45613 89.9823,32.88457 13.9737,1.81298 16.85,0.87737 4.1187,-1.3397 -21.786,-3.79386 -54.797,-17.9153 -75.8729,-32.45682 -16.5268,-11.40287 -34.7142,-28.32747 -44.6856,-41.58293 -1.7991,-2.39177 -1.6415,-2.37103 1.7335,0.22804 2.0419,1.5725 8.2594,4.75192 13.8166,7.06539 34.1609,14.22124 72.1992,9.2382 99.9133,-13.08871 20.6701,-16.65221 37.3147,-47.87339 43.133,-80.907 1.461,-8.29532 6.7256,-54.02533 6.7461,-58.60011 0.014,-3.00052 4.493,2.93735 25.5995,33.93344 32.8385,48.2254 42.0626,72.62519 40.762,107.82449 -0.7481,20.2434 -3.962,31.47575 -13.8166,48.28692 -22.3273,38.08879 -73.0772,65.79738 -137.8666,75.27274 -17.0653,2.4958 -58.3333,3.57896 -71.9999,1.88979 z M 395.2697,897.47059 c -9.56194,-16.91679 -15.69163,-34.17125 -20.02595,-56.37102 -1.76594,-9.04491 -2.34513,-18.73102 -2.35195,-39.33333 -0.008,-25.5805 0.26091,-28.61588 4.20085,-47.33333 4.7654,-22.63894 12.26085,-46.34466 20.98557,-66.37063 6.53024,-14.98894 5.05975,-14.30763 -6.55552,3.0373 -14.98911,22.38305 -25.58523,47.7045 -31.58314,75.47394 -3.75803,17.39918 -4.10784,49.61997 -0.70006,64.48345 4.69706,20.48684 13.41796,39.79584 25.83644,57.20457 5.90438,8.27701 13.50943,17.5047 14.42659,17.5047 0.25088,0 -1.65389,-3.73304 -4.23283,-8.29565 z M 517.58128,820.3241 c -9.8248,-1.92946 -22.3476,-8.63396 -29.5159,-15.80233 -14.0154,-14.01531 -18.2291,-30.72227 -16.8967,-66.99306 1.8931,-51.5306 13.5354,-104.4446 61.4079,-279.09578 10.4666,-38.18464 22.9438,-88.56724 25.5905,-103.33333 1.2487,-6.96666 2.8687,-13.41666 3.5999,-14.33333 4.8549,-6.08556 24.7486,7.16396 35.5348,23.66667 2.6361,4.03333 7.2662,12.13333 10.289,17.99999 5.3507,10.38471 5.6152,10.65677 10.0043,10.29215 2.4796,-0.20599 8.3257,-2.15599 12.9914,-4.33334 4.6657,-2.17734 8.6304,-3.95881 8.8105,-3.95881 0.1801,0 2.5806,3.65044 5.3345,8.11208 10.1708,16.47805 26.2237,32.15219 42.821,41.8107 2.2637,1.31729 5.2384,4.47981 6.6106,7.02782 3.5024,6.50343 18.7889,21.82813 27.3862,27.45449 3.9715,2.59905 9.7708,5.46612 12.8875,6.37127 3.1167,0.90516 5.6667,2.13863 5.6667,2.74105 0,1.89044 -13.6277,9.06045 -22.4992,11.83764 -4.6746,1.46335 -11.7246,3.03971 -15.6667,3.50303 -8.5496,1.00484 -8.4337,0.44481 -4.4072,21.30995 3.022,15.65943 5.9047,22.79339 18.5201,45.83196 8.8789,16.21491 19.2851,40.62388 21.464,50.34659 1.0365,4.62533 0.8584,6.75414 -0.8699,10.39625 -4.4861,9.45378 -29.4239,28.56705 -40.0438,30.69102 -4.4102,0.88204 -17.9864,-2.11723 -25.3061,-5.59066 -5.5224,-2.62055 -11.7894,-8.87815 -15.5241,-15.50072 -1.9253,-3.414 -5.7928,-6.76218 -12.2408,-10.59722 -9.1514,-5.44287 -58.3152,-33.07859 -58.8467,-33.07859 -0.1454,0 -2.7212,8.85 -5.7239,19.66666 -12.3395,44.45088 -26.085,114.73193 -29.5761,151.22374 -1.5757,16.47038 -1.0996,52.39723 0.7965,60.10958 l 0.9014,3.66667 -13.8221,-0.14609 c -7.6021,-0.0803 -16.4571,-0.66357 -19.6776,-1.29605 z m 146.8295,-307.95351 c 0.4786,-4.98138 1.6065,-7.731 4.3428,-10.58707 2.0329,-2.12194 3.3711,-4.70544 2.9737,-5.74112 -0.4088,-1.06528 -4.3925,-2.6012 -9.1732,-3.53671 -4.6479,-0.90952 -12.5336,-3.69797 -17.524,-6.19655 -4.9903,-2.49858 -9.688,-4.54288 -10.4392,-4.54288 -2.0264,0 -0.1347,7.41297 4.2835,16.78549 4.8143,10.21284 15.3779,20.54784 21.0023,20.54784 3.6955,0 3.9194,-0.33234 4.5341,-6.729 z m 25.026,-90.13547 c -13.7814,-8.88792 -38.6667,-36.39664 -38.6667,-42.74296 0,-0.78184 9.45,-6.95573 21,-13.71976 28.3189,-16.58435 51.9433,-30.59251 91.6667,-54.35404 36.7008,-21.95348 41.9166,-24.84659 42.9432,-23.81999 1.6048,1.60478 -5.9238,13.34036 -19.781,30.83457 -52.1731,65.86683 -86.9613,108.65741 -88.2897,108.59913 -0.8465,-0.0371 -4.8392,-2.19576 -8.8725,-4.79695 z"
       id="path1" />
  </g>
</svg>
